<svg xmlns="http://www.w3.org/2000/svg" width="200" height="200" fill="none"><g clip-path="url(#a)"><path fill="url(#b)" fill-rule="evenodd" d="m75.55 178.786-.001.001-12.635-12.635c.057.775.086 1.558.086 2.348 0 17.397-14.103 31.5-31.5 31.5S0 185.897 0 168.5 14.103 137 31.5 137c.79 0 1.573.029 2.348.086l-12.985-12.985.002-.003C7.958 110.931 0 92.895 0 73 0 32.683 32.683 0 73 0c19.895 0 37.931 7.958 51.098 20.865l.002-.002.391.39.256.256 12.339 12.34A32.043 32.043 0 0 1 137 31.5C137 14.103 151.103 0 168.5 0S200 14.103 200 31.5 185.897 63 168.5 63c-.79 0-1.573-.03-2.349-.086l12.341 12.34.253.254.041.041C191.898 88.746 200 106.927 200 127c0 40.317-32.683 73-73 73-20.073 0-38.254-8.102-51.45-21.214Z" clip-rule="evenodd"/></g><defs><linearGradient id="b" x1="14" x2="179" y1="26" y2="179.5" gradientUnits="userSpaceOnUse"><stop stop-color="#E9B8FF"/><stop offset="1" stop-color="#F9ECFF"/></linearGradient><clipPath id="a"><path fill="#fff" d="M0 0h200v200H0z"/></clipPath></defs></svg>