<svg xmlns="http://www.w3.org/2000/svg" width="200" height="200" fill="none"><g clip-path="url(#a)"><path fill="url(#b)" fill-rule="evenodd" d="M100 0c55.228 0 100 44.772 100 100s-44.772 100-100 100S0 155.228 0 100 44.772 0 100 0Zm0 0c38.108 0 69 30.892 69 69 0 38.108-30.892 69-69 69-38.108 0-69-30.892-69-69 0-38.108 30.892-69 69-69Zm32 69c0-17.673-14.327-32-32-32-17.673 0-32 14.327-32 32 0 17.673 14.327 32 32 32 17.673 0 32-14.327 32-32Z" clip-rule="evenodd"/></g><defs><linearGradient id="b" x1="0" x2="152.5" y1="23" y2="160.5" gradientUnits="userSpaceOnUse"><stop stop-color="#B0B9FF"/><stop offset="1" stop-color="#E7E9FF"/></linearGradient><clipPath id="a"><path fill="#fff" d="M0 200V0h200v200z"/></clipPath></defs></svg>